<svg width="163" height="53" viewBox="0 0 163 53" fill="none" xmlns="http://www.w3.org/2000/svg">
<mask id="path-1-outside-1_9_5" maskUnits="userSpaceOnUse" x="0" y="9" width="162" height="30" fill="black">
<rect fill="white" y="9" width="162" height="30"/>
<path d="M23.712 33.288C24.2453 33.288 24.6933 33.48 25.056 33.864C25.44 34.2267 25.632 34.6747 25.632 35.208C25.632 35.7413 25.44 36.2 25.056 36.584C24.6933 36.9467 24.2453 37.128 23.712 37.128H3.904C3.28533 37.128 2.79467 36.9787 2.432 36.68C2.09067 36.3813 1.92 35.944 1.92 35.368C1.92 34.9413 2.10133 34.5253 2.464 34.12L19.008 15.432L19.456 15.112H4.576C4.04267 15.112 3.584 14.9307 3.2 14.568C2.83733 14.184 2.656 13.7253 2.656 13.192C2.656 12.6587 2.83733 12.2107 3.2 11.848C3.584 11.464 4.04267 11.272 4.576 11.272H23.52C24.8427 11.272 25.504 11.8373 25.504 12.968C25.504 13.4587 25.3227 13.896 24.96 14.28L8.48 32.872L7.936 33.288H23.712ZM42.5705 37.928C40.0958 37.928 37.8665 37.3627 35.8825 36.232C33.8985 35.08 32.3305 33.48 31.1785 31.432C30.0478 29.384 29.4825 27.048 29.4825 24.424C29.4825 21.8 30.0478 19.464 31.1785 17.416C32.3305 15.368 33.8985 13.7787 35.8825 12.648C37.8665 11.496 40.0958 10.92 42.5705 10.92C45.0452 10.92 47.2745 11.496 49.2585 12.648C51.2425 13.7787 52.7998 15.368 53.9305 17.416C55.0612 19.464 55.6265 21.8 55.6265 24.424C55.6265 27.048 55.0612 29.384 53.9305 31.432C52.7998 33.48 51.2425 35.08 49.2585 36.232C47.2745 37.3627 45.0452 37.928 42.5705 37.928ZM42.5705 33.8C44.2772 33.8 45.8025 33.416 47.1465 32.648C48.5118 31.8587 49.5785 30.76 50.3465 29.352C51.1145 27.9227 51.4985 26.28 51.4985 24.424C51.4985 22.568 51.1145 20.936 50.3465 19.528C49.5785 18.0987 48.5118 17 47.1465 16.232C45.8025 15.4427 44.2772 15.048 42.5705 15.048C40.8638 15.048 39.3278 15.4427 37.9625 16.232C36.5972 17 35.5305 18.0987 34.7625 19.528C33.9945 20.936 33.6105 22.568 33.6105 24.424C33.6105 26.28 33.9945 27.9227 34.7625 29.352C35.5305 30.76 36.5972 31.8587 37.9625 32.648C39.3278 33.416 40.8638 33.8 42.5705 33.8ZM70.7153 33.256C71.2486 33.256 71.6966 33.448 72.0593 33.832C72.4433 34.1947 72.6353 34.6427 72.6353 35.176C72.6353 35.7093 72.4433 36.168 72.0593 36.552C71.6966 36.9147 71.2486 37.096 70.7153 37.096H62.1393C61.5419 37.096 61.0513 36.904 60.6673 36.52C60.2833 36.136 60.0913 35.6453 60.0913 35.048V12.872C60.0913 12.3387 60.2726 11.8907 60.6353 11.528C61.0193 11.144 61.4779 10.952 62.0113 10.952C62.5446 10.952 62.9926 11.144 63.3553 11.528C63.7393 11.8907 63.9313 12.3387 63.9313 12.872V33.256H70.7153ZM106.922 35.496C106.922 36.0507 106.709 36.5413 106.282 36.968C105.877 37.3947 105.386 37.608 104.81 37.608C104.362 37.608 103.935 37.4587 103.53 37.16C103.146 36.8827 102.911 36.5413 102.826 36.136C102.335 34.024 101.653 31.112 100.778 27.4C99.9033 23.6667 99.242 20.8827 98.794 19.048L98.666 18.28C98.602 18.472 98.5593 18.6427 98.538 18.792C98.538 18.92 98.5273 19.0053 98.506 19.048L93.322 35.336C93.1727 35.784 92.9167 36.1467 92.554 36.424C92.2127 36.68 91.818 36.808 91.37 36.808C90.9007 36.808 90.4633 36.6693 90.058 36.392C89.674 36.1147 89.4073 35.7733 89.258 35.368L83.786 19.08L83.658 18.344C83.5513 18.728 83.498 18.9733 83.498 19.08C83.05 21.2133 82.4633 24.072 81.738 27.656C81.0127 31.2187 80.4687 33.9493 80.106 35.848C80.0207 36.2533 79.7753 36.6053 79.37 36.904C78.986 37.1813 78.5593 37.32 78.09 37.32C77.5567 37.32 77.098 37.128 76.714 36.744C76.3513 36.36 76.17 35.912 76.17 35.4C76.17 35.3147 76.1913 35.1653 76.234 34.952C76.426 34.1627 78.1753 26.6853 81.482 12.52C81.5887 12.0507 81.8233 11.6773 82.186 11.4C82.57 11.1227 82.9967 10.984 83.466 10.984C83.914 10.984 84.3087 11.1227 84.65 11.4C85.0127 11.656 85.2687 12.008 85.418 12.456L90.954 29.544C90.954 29.608 91.018 29.9173 91.146 30.472C91.274 29.9173 91.338 29.608 91.338 29.544L96.778 12.232C96.9273 11.8053 97.194 11.4533 97.578 11.176C97.962 10.8987 98.3887 10.76 98.858 10.76C99.37 10.76 99.8393 10.8987 100.266 11.176C100.693 11.4533 100.949 11.8053 101.034 12.232C101.482 13.9173 102.175 16.6373 103.114 20.392C104.074 24.1467 105.034 27.8907 105.994 31.624L106.858 35.08L106.922 35.496ZM132.78 34.6C132.886 34.856 132.94 35.0587 132.94 35.208C132.94 35.7627 132.748 36.2427 132.364 36.648C132.001 37.032 131.542 37.224 130.988 37.224C130.604 37.224 130.241 37.1173 129.9 36.904C129.58 36.6907 129.345 36.4027 129.196 36.04L126.7 29.576H116.94L114.476 36.072C114.348 36.4133 114.113 36.6907 113.772 36.904C113.452 37.1173 113.089 37.224 112.684 37.224C112.129 37.224 111.67 37.032 111.308 36.648C110.945 36.264 110.764 35.8053 110.764 35.272C110.764 35.1013 110.817 34.888 110.924 34.632L120.172 12.168C120.342 11.7627 120.566 11.4533 120.844 11.24C121.142 11.0267 121.452 10.92 121.772 10.92C122.134 10.92 122.476 11.0267 122.796 11.24C123.116 11.4533 123.361 11.7733 123.532 12.2L132.78 34.6ZM121.548 17.544L118.316 26.024H125.324L122.06 17.544L121.804 16.648L121.548 17.544ZM139.483 37.512C138.928 37.512 138.448 37.32 138.043 36.936C137.638 36.552 137.435 36.104 137.435 35.592V13.064C137.435 12.5093 137.648 12.0293 138.075 11.624C138.523 11.1973 139.046 10.984 139.643 10.984C140.304 10.984 140.859 11.272 141.307 11.848L155.707 29.576L155.963 30.088V12.648C155.963 12.136 156.166 11.688 156.571 11.304C156.976 10.92 157.456 10.728 158.011 10.728C158.566 10.728 159.046 10.92 159.451 11.304C159.878 11.688 160.091 12.136 160.091 12.648V35.016C160.091 35.5707 159.867 36.0613 159.419 36.488C158.971 36.8933 158.448 37.096 157.851 37.096C157.552 37.096 157.254 37.0213 156.955 36.872C156.656 36.7013 156.4 36.488 156.187 36.232L141.819 18.6L141.563 18.056V35.592C141.563 36.104 141.35 36.552 140.923 36.936C140.518 37.32 140.038 37.512 139.483 37.512Z"/>
</mask>
<path d="M23.712 33.288C24.2453 33.288 24.6933 33.48 25.056 33.864C25.44 34.2267 25.632 34.6747 25.632 35.208C25.632 35.7413 25.44 36.2 25.056 36.584C24.6933 36.9467 24.2453 37.128 23.712 37.128H3.904C3.28533 37.128 2.79467 36.9787 2.432 36.68C2.09067 36.3813 1.92 35.944 1.92 35.368C1.92 34.9413 2.10133 34.5253 2.464 34.12L19.008 15.432L19.456 15.112H4.576C4.04267 15.112 3.584 14.9307 3.2 14.568C2.83733 14.184 2.656 13.7253 2.656 13.192C2.656 12.6587 2.83733 12.2107 3.2 11.848C3.584 11.464 4.04267 11.272 4.576 11.272H23.52C24.8427 11.272 25.504 11.8373 25.504 12.968C25.504 13.4587 25.3227 13.896 24.96 14.28L8.48 32.872L7.936 33.288H23.712ZM42.5705 37.928C40.0958 37.928 37.8665 37.3627 35.8825 36.232C33.8985 35.08 32.3305 33.48 31.1785 31.432C30.0478 29.384 29.4825 27.048 29.4825 24.424C29.4825 21.8 30.0478 19.464 31.1785 17.416C32.3305 15.368 33.8985 13.7787 35.8825 12.648C37.8665 11.496 40.0958 10.92 42.5705 10.92C45.0452 10.92 47.2745 11.496 49.2585 12.648C51.2425 13.7787 52.7998 15.368 53.9305 17.416C55.0612 19.464 55.6265 21.8 55.6265 24.424C55.6265 27.048 55.0612 29.384 53.9305 31.432C52.7998 33.48 51.2425 35.08 49.2585 36.232C47.2745 37.3627 45.0452 37.928 42.5705 37.928ZM42.5705 33.8C44.2772 33.8 45.8025 33.416 47.1465 32.648C48.5118 31.8587 49.5785 30.76 50.3465 29.352C51.1145 27.9227 51.4985 26.28 51.4985 24.424C51.4985 22.568 51.1145 20.936 50.3465 19.528C49.5785 18.0987 48.5118 17 47.1465 16.232C45.8025 15.4427 44.2772 15.048 42.5705 15.048C40.8638 15.048 39.3278 15.4427 37.9625 16.232C36.5972 17 35.5305 18.0987 34.7625 19.528C33.9945 20.936 33.6105 22.568 33.6105 24.424C33.6105 26.28 33.9945 27.9227 34.7625 29.352C35.5305 30.76 36.5972 31.8587 37.9625 32.648C39.3278 33.416 40.8638 33.8 42.5705 33.8ZM70.7153 33.256C71.2486 33.256 71.6966 33.448 72.0593 33.832C72.4433 34.1947 72.6353 34.6427 72.6353 35.176C72.6353 35.7093 72.4433 36.168 72.0593 36.552C71.6966 36.9147 71.2486 37.096 70.7153 37.096H62.1393C61.5419 37.096 61.0513 36.904 60.6673 36.52C60.2833 36.136 60.0913 35.6453 60.0913 35.048V12.872C60.0913 12.3387 60.2726 11.8907 60.6353 11.528C61.0193 11.144 61.4779 10.952 62.0113 10.952C62.5446 10.952 62.9926 11.144 63.3553 11.528C63.7393 11.8907 63.9313 12.3387 63.9313 12.872V33.256H70.7153ZM106.922 35.496C106.922 36.0507 106.709 36.5413 106.282 36.968C105.877 37.3947 105.386 37.608 104.81 37.608C104.362 37.608 103.935 37.4587 103.53 37.16C103.146 36.8827 102.911 36.5413 102.826 36.136C102.335 34.024 101.653 31.112 100.778 27.4C99.9033 23.6667 99.242 20.8827 98.794 19.048L98.666 18.28C98.602 18.472 98.5593 18.6427 98.538 18.792C98.538 18.92 98.5273 19.0053 98.506 19.048L93.322 35.336C93.1727 35.784 92.9167 36.1467 92.554 36.424C92.2127 36.68 91.818 36.808 91.37 36.808C90.9007 36.808 90.4633 36.6693 90.058 36.392C89.674 36.1147 89.4073 35.7733 89.258 35.368L83.786 19.08L83.658 18.344C83.5513 18.728 83.498 18.9733 83.498 19.08C83.05 21.2133 82.4633 24.072 81.738 27.656C81.0127 31.2187 80.4687 33.9493 80.106 35.848C80.0207 36.2533 79.7753 36.6053 79.37 36.904C78.986 37.1813 78.5593 37.32 78.09 37.32C77.5567 37.32 77.098 37.128 76.714 36.744C76.3513 36.36 76.17 35.912 76.17 35.4C76.17 35.3147 76.1913 35.1653 76.234 34.952C76.426 34.1627 78.1753 26.6853 81.482 12.52C81.5887 12.0507 81.8233 11.6773 82.186 11.4C82.57 11.1227 82.9967 10.984 83.466 10.984C83.914 10.984 84.3087 11.1227 84.65 11.4C85.0127 11.656 85.2687 12.008 85.418 12.456L90.954 29.544C90.954 29.608 91.018 29.9173 91.146 30.472C91.274 29.9173 91.338 29.608 91.338 29.544L96.778 12.232C96.9273 11.8053 97.194 11.4533 97.578 11.176C97.962 10.8987 98.3887 10.76 98.858 10.76C99.37 10.76 99.8393 10.8987 100.266 11.176C100.693 11.4533 100.949 11.8053 101.034 12.232C101.482 13.9173 102.175 16.6373 103.114 20.392C104.074 24.1467 105.034 27.8907 105.994 31.624L106.858 35.08L106.922 35.496ZM132.78 34.6C132.886 34.856 132.94 35.0587 132.94 35.208C132.94 35.7627 132.748 36.2427 132.364 36.648C132.001 37.032 131.542 37.224 130.988 37.224C130.604 37.224 130.241 37.1173 129.9 36.904C129.58 36.6907 129.345 36.4027 129.196 36.04L126.7 29.576H116.94L114.476 36.072C114.348 36.4133 114.113 36.6907 113.772 36.904C113.452 37.1173 113.089 37.224 112.684 37.224C112.129 37.224 111.67 37.032 111.308 36.648C110.945 36.264 110.764 35.8053 110.764 35.272C110.764 35.1013 110.817 34.888 110.924 34.632L120.172 12.168C120.342 11.7627 120.566 11.4533 120.844 11.24C121.142 11.0267 121.452 10.92 121.772 10.92C122.134 10.92 122.476 11.0267 122.796 11.24C123.116 11.4533 123.361 11.7733 123.532 12.2L132.78 34.6ZM121.548 17.544L118.316 26.024H125.324L122.06 17.544L121.804 16.648L121.548 17.544ZM139.483 37.512C138.928 37.512 138.448 37.32 138.043 36.936C137.638 36.552 137.435 36.104 137.435 35.592V13.064C137.435 12.5093 137.648 12.0293 138.075 11.624C138.523 11.1973 139.046 10.984 139.643 10.984C140.304 10.984 140.859 11.272 141.307 11.848L155.707 29.576L155.963 30.088V12.648C155.963 12.136 156.166 11.688 156.571 11.304C156.976 10.92 157.456 10.728 158.011 10.728C158.566 10.728 159.046 10.92 159.451 11.304C159.878 11.688 160.091 12.136 160.091 12.648V35.016C160.091 35.5707 159.867 36.0613 159.419 36.488C158.971 36.8933 158.448 37.096 157.851 37.096C157.552 37.096 157.254 37.0213 156.955 36.872C156.656 36.7013 156.4 36.488 156.187 36.232L141.819 18.6L141.563 18.056V35.592C141.563 36.104 141.35 36.552 140.923 36.936C140.518 37.32 140.038 37.512 139.483 37.512Z" fill="black"/>
<path d="M25.056 33.864L24.329 34.5506L24.3486 34.5714L24.3694 34.591L25.056 33.864ZM25.056 36.584L25.7631 37.2911L25.7631 37.2911L25.056 36.584ZM2.432 36.68L1.7735 37.4326L1.78475 37.4424L1.79629 37.4519L2.432 36.68ZM2.464 34.12L3.20925 34.7868L3.21275 34.7829L2.464 34.12ZM19.008 15.432L18.4268 14.6183L18.3344 14.6842L18.2592 14.7691L19.008 15.432ZM19.456 15.112L20.0372 15.9257L22.5765 14.112H19.456V15.112ZM3.2 14.568L2.47299 15.2546L2.4926 15.2754L2.51338 15.295L3.2 14.568ZM3.2 11.848L3.90711 12.5551L3.90711 12.5551L3.2 11.848ZM24.96 14.28L24.233 13.5934L24.2221 13.6049L24.2117 13.6167L24.96 14.28ZM8.48 32.872L9.08745 33.6664L9.16422 33.6076L9.22833 33.5353L8.48 32.872ZM7.936 33.288L7.32855 32.4936L4.98208 34.288H7.936V33.288ZM23.712 34.288C23.9732 34.288 24.1573 34.3688 24.329 34.5506L25.783 33.1774C25.2294 32.5912 24.5174 32.288 23.712 32.288V34.288ZM24.3694 34.591C24.5512 34.7627 24.632 34.9468 24.632 35.208H26.632C26.632 34.4026 26.3288 33.6906 25.7426 33.137L24.3694 34.591ZM24.632 35.208C24.632 35.4707 24.5492 35.6766 24.3489 35.8769L25.7631 37.2911C26.3308 36.7234 26.632 36.0119 26.632 35.208H24.632ZM24.3489 35.8769C24.1819 36.0438 23.9919 36.128 23.712 36.128V38.128C24.4988 38.128 25.2047 37.8495 25.7631 37.2911L24.3489 35.8769ZM23.712 36.128H3.904V38.128H23.712V36.128ZM3.904 36.128C3.44312 36.128 3.20141 36.0182 3.06771 35.9081L1.79629 37.4519C2.38792 37.9392 3.12755 38.128 3.904 38.128V36.128ZM3.0905 35.9274C3.02204 35.8675 2.92 35.7392 2.92 35.368H0.92C0.92 36.1488 1.15929 36.8952 1.7735 37.4326L3.0905 35.9274ZM2.92 35.368C2.92 35.2492 2.96411 35.0608 3.20924 34.7868L1.71876 33.4532C1.23856 33.9899 0.92 34.6335 0.92 35.368H2.92ZM3.21275 34.7829L19.7568 16.0948L18.2592 14.7691L1.71525 33.4571L3.21275 34.7829ZM19.5892 16.2457L20.0372 15.9257L18.8748 14.2983L18.4268 14.6183L19.5892 16.2457ZM19.456 14.112H4.576V16.112H19.456V14.112ZM4.576 14.112C4.29523 14.112 4.08299 14.0264 3.88662 13.841L2.51338 15.295C3.08501 15.8349 3.79011 16.112 4.576 16.112V14.112ZM3.92701 13.8814C3.74156 13.685 3.656 13.4728 3.656 13.192H1.656C1.656 13.9779 1.93311 14.683 2.47299 15.2546L3.92701 13.8814ZM3.656 13.192C3.656 12.9121 3.74016 12.7221 3.90711 12.5551L2.49289 11.1409C1.93451 11.6993 1.656 12.4052 1.656 13.192H3.656ZM3.90711 12.5551C4.10741 12.3548 4.31326 12.272 4.576 12.272V10.272C3.77207 10.272 3.06059 10.5732 2.49289 11.1409L3.90711 12.5551ZM4.576 12.272H23.52V10.272H4.576V12.272ZM23.52 12.272C24.0622 12.272 24.2823 12.3912 24.3582 12.4561C24.4041 12.4954 24.504 12.6014 24.504 12.968H26.504C26.504 12.204 26.2732 11.462 25.6578 10.9359C25.0724 10.4355 24.3005 10.272 23.52 10.272V12.272ZM24.504 12.968C24.504 13.1827 24.435 13.3795 24.233 13.5934L25.687 14.9666C26.2103 14.4125 26.504 13.7346 26.504 12.968H24.504ZM24.2117 13.6167L7.73167 32.2087L9.22833 33.5353L25.7083 14.9433L24.2117 13.6167ZM7.87255 32.0776L7.32855 32.4936L8.54345 34.0824L9.08745 33.6664L7.87255 32.0776ZM7.936 34.288H23.712V32.288H7.936V34.288ZM35.8825 36.232L35.3803 37.0968L35.3874 37.1008L35.8825 36.232ZM31.1785 31.432L30.303 31.9153L30.3069 31.9223L31.1785 31.432ZM31.1785 17.416L30.3069 16.9257L30.3031 16.9327L31.1785 17.416ZM35.8825 12.648L36.3776 13.5168L36.3846 13.5128L35.8825 12.648ZM49.2585 12.648L48.7563 13.5128L48.7634 13.5168L49.2585 12.648ZM53.9305 17.416L54.8059 16.9327L54.8059 16.9327L53.9305 17.416ZM53.9305 31.432L54.8059 31.9153L54.8059 31.9153L53.9305 31.432ZM49.2585 36.232L49.7536 37.1008L49.7606 37.0968L49.2585 36.232ZM47.1465 32.648L47.6426 33.5163L47.647 33.5137L47.1465 32.648ZM50.3465 29.352L51.2244 29.8309L51.2274 29.8253L50.3465 29.352ZM50.3465 19.528L49.4656 20.0013L49.4686 20.0069L50.3465 19.528ZM47.1465 16.232L46.6401 17.0943L46.6481 17.099L46.6562 17.1036L47.1465 16.232ZM37.9625 16.232L38.4528 17.1036L38.463 17.0977L37.9625 16.232ZM34.7625 19.528L35.6404 20.0069L35.6434 20.0013L34.7625 19.528ZM34.7625 29.352L33.8816 29.8253L33.8846 29.8309L34.7625 29.352ZM37.9625 32.648L37.462 33.5138L37.4722 33.5196L37.9625 32.648ZM42.5705 36.928C40.2545 36.928 38.1983 36.4008 36.3776 35.3632L35.3874 37.1008C37.5347 38.3246 39.9372 38.928 42.5705 38.928V36.928ZM36.3846 35.3672C34.5589 34.3071 33.1168 32.8381 32.0501 30.9417L30.3069 31.9223C31.5442 34.1219 33.2381 35.8529 35.3804 37.0968L36.3846 35.3672ZM32.0539 30.9487C31.0145 29.066 30.4825 26.8999 30.4825 24.424H28.4825C28.4825 27.1961 29.0811 29.702 30.3031 31.9153L32.0539 30.9487ZM30.4825 24.424C30.4825 21.9481 31.0145 19.782 32.0539 17.8993L30.3031 16.9327C29.0811 19.146 28.4825 21.6519 28.4825 24.424H30.4825ZM32.0501 17.9063C33.1159 16.0114 34.5558 14.5551 36.3776 13.5168L35.3874 11.7792C33.2412 13.0023 31.5451 14.7246 30.3069 16.9257L32.0501 17.9063ZM36.3846 13.5128C38.2042 12.4563 40.2579 11.92 42.5705 11.92V9.92C39.9338 9.92 37.5288 10.5357 35.3804 11.7832L36.3846 13.5128ZM42.5705 11.92C44.8831 11.92 46.9368 12.4563 48.7564 13.5128L49.7606 11.7832C47.6122 10.5357 45.2072 9.92 42.5705 9.92V11.92ZM48.7634 13.5168C50.5835 14.5541 52.011 16.0082 53.0551 17.8993L54.8059 16.9327C53.5887 14.7278 51.9015 13.0032 49.7536 11.7792L48.7634 13.5168ZM53.0551 17.8993C54.0945 19.782 54.6265 21.9481 54.6265 24.424H56.6265C56.6265 21.6519 56.0279 19.146 54.8059 16.9327L53.0551 17.8993ZM54.6265 24.424C54.6265 26.8999 54.0945 29.066 53.0551 30.9487L54.8059 31.9153C56.0279 29.702 56.6265 27.1961 56.6265 24.424H54.6265ZM53.0551 30.9487C52.0102 32.8413 50.5805 34.3081 48.7564 35.3672L49.7606 37.0968C51.9046 35.8519 53.5895 34.1187 54.8059 31.9153L53.0551 30.9487ZM48.7634 35.3632C46.9427 36.4008 44.8865 36.928 42.5705 36.928V38.928C45.2038 38.928 47.6063 38.3246 49.7536 37.1008L48.7634 35.3632ZM42.5705 34.8C44.4329 34.8 46.1324 34.3792 47.6426 33.5162L46.6504 31.7798C45.4726 32.4528 44.1214 32.8 42.5705 32.8V34.8ZM47.647 33.5137C49.1741 32.6309 50.3701 31.3971 51.2244 29.8309L49.4686 28.8731C48.7869 30.1229 47.8496 31.0864 46.646 31.7823L47.647 33.5137ZM51.2274 29.8253C52.0842 28.2307 52.4985 26.4212 52.4985 24.424H50.4985C50.4985 26.1388 50.1448 27.6146 49.4656 28.8787L51.2274 29.8253ZM52.4985 24.424C52.4985 22.4272 52.0843 20.6257 51.2244 19.0491L49.4686 20.0069C50.1447 21.2463 50.4985 22.7088 50.4985 24.424H52.4985ZM51.2274 19.0547C50.373 17.4645 49.1736 16.2249 47.6368 15.3604L46.6562 17.1036C47.8501 17.7751 48.784 18.7328 49.4656 20.0013L51.2274 19.0547ZM47.6529 15.3697C46.141 14.4818 44.4378 14.048 42.5705 14.048V16.048C44.1165 16.048 45.464 16.4036 46.6401 17.0943L47.6529 15.3697ZM42.5705 14.048C40.703 14.048 38.9919 14.4818 37.462 15.3663L38.463 17.0977C39.6638 16.4035 41.0247 16.048 42.5705 16.048V14.048ZM37.4722 15.3604C35.9354 16.2249 34.736 17.4645 33.8816 19.0547L35.6434 20.0013C36.325 18.7328 37.2589 17.7751 38.4528 17.1036L37.4722 15.3604ZM33.8846 19.0491C33.0247 20.6257 32.6105 22.4272 32.6105 24.424H34.6105C34.6105 22.7088 34.9643 21.2463 35.6404 20.0069L33.8846 19.0491ZM32.6105 24.424C32.6105 26.4212 33.0248 28.2307 33.8816 29.8253L35.6434 28.8787C34.9642 27.6146 34.6105 26.1388 34.6105 24.424H32.6105ZM33.8846 29.8309C34.7389 31.3971 35.9349 32.6309 37.462 33.5137L38.463 31.7823C37.2594 31.0864 36.3221 30.1229 35.6404 28.8731L33.8846 29.8309ZM37.4722 33.5196C39.0004 34.3792 40.7079 34.8 42.5705 34.8V32.8C41.0198 32.8 39.6552 32.4528 38.4528 31.7764L37.4722 33.5196ZM72.0593 33.832L71.3322 34.5186L71.3519 34.5394L71.3726 34.559L72.0593 33.832ZM72.0593 36.552L72.7664 37.2591L72.7664 37.2591L72.0593 36.552ZM60.6673 36.52L61.3744 35.8129L61.3744 35.8129L60.6673 36.52ZM60.6353 11.528L59.9281 10.8209L59.9281 10.8209L60.6353 11.528ZM63.3553 11.528L62.6282 12.2146L62.6479 12.2354L62.6686 12.255L63.3553 11.528ZM63.9313 33.256H62.9313V34.256H63.9313V33.256ZM70.7153 34.256C70.9765 34.256 71.1606 34.3368 71.3322 34.5186L72.7863 33.1454C72.2326 32.5592 71.5207 32.256 70.7153 32.256V34.256ZM71.3726 34.559C71.5544 34.7307 71.6353 34.9148 71.6353 35.176H73.6353C73.6353 34.3706 73.3321 33.6586 72.7459 33.105L71.3726 34.559ZM71.6353 35.176C71.6353 35.4387 71.5524 35.6446 71.3521 35.8449L72.7664 37.2591C73.3341 36.6914 73.6353 35.9799 73.6353 35.176H71.6353ZM71.3521 35.8449C71.1852 36.0118 70.9952 36.096 70.7153 36.096V38.096C71.502 38.096 72.208 37.8175 72.7664 37.2591L71.3521 35.8449ZM70.7153 36.096H62.1393V38.096H70.7153V36.096ZM62.1393 36.096C61.778 36.096 61.5512 35.9897 61.3744 35.8129L59.9601 37.2271C60.5513 37.8183 61.3058 38.096 62.1393 38.096V36.096ZM61.3744 35.8129C61.1975 35.6361 61.0913 35.4092 61.0913 35.048H59.0913C59.0913 35.8814 59.369 36.6359 59.9601 37.2271L61.3744 35.8129ZM61.0913 35.048V12.872H59.0913V35.048H61.0913ZM61.0913 12.872C61.0913 12.5921 61.1754 12.4021 61.3424 12.2351L59.9281 10.8209C59.3698 11.3793 59.0913 12.0852 59.0913 12.872H61.0913ZM61.3424 12.2351C61.5427 12.0348 61.7485 11.952 62.0113 11.952V9.952C61.2073 9.952 60.4958 10.2532 59.9281 10.8209L61.3424 12.2351ZM62.0113 11.952C62.2725 11.952 62.4566 12.0328 62.6282 12.2146L64.0823 10.8414C63.5286 10.2552 62.8167 9.952 62.0113 9.952V11.952ZM62.6686 12.255C62.8504 12.4267 62.9313 12.6108 62.9313 12.872H64.9313C64.9313 12.0666 64.6281 11.3546 64.0419 10.801L62.6686 12.255ZM62.9313 12.872V33.256H64.9313V12.872H62.9313ZM63.9313 34.256H70.7153V32.256H63.9313V34.256ZM106.922 35.496H107.922V35.4195L107.91 35.3439L106.922 35.496ZM106.282 36.968L105.575 36.2609L105.566 36.27L105.557 36.2793L106.282 36.968ZM103.53 37.16L104.123 36.3549L104.115 36.3493L103.53 37.16ZM102.826 36.136L103.805 35.93L103.802 35.9198L103.8 35.9097L102.826 36.136ZM100.778 27.4L99.8044 27.6281L99.8047 27.6294L100.778 27.4ZM98.794 19.048L97.8076 19.2124L97.8137 19.2491L97.8225 19.2852L98.794 19.048ZM98.666 18.28L99.6524 18.1156L97.7173 17.9638L98.666 18.28ZM98.538 18.792L97.5481 18.6506L97.538 18.7209V18.792H98.538ZM98.506 19.048L97.6116 18.6008L97.5767 18.6705L97.5531 18.7447L98.506 19.048ZM93.322 35.336L94.2708 35.6523L94.2749 35.6393L93.322 35.336ZM92.554 36.424L93.154 37.224L93.1615 37.2184L92.554 36.424ZM90.058 36.392L89.4725 37.2027L89.4828 37.2101L89.4933 37.2173L90.058 36.392ZM89.258 35.368L88.3101 35.6865L88.3147 35.7002L88.3197 35.7137L89.258 35.368ZM83.786 19.08L82.8008 19.2513L82.8138 19.3263L82.8381 19.3985L83.786 19.08ZM83.658 18.344L84.6432 18.1727L82.6945 18.0764L83.658 18.344ZM83.498 19.08L84.4767 19.2855L84.498 19.1839V19.08H83.498ZM81.738 27.656L82.7179 27.8555L82.7181 27.8544L81.738 27.656ZM80.106 35.848L81.0846 36.054L81.0865 36.0448L81.0882 36.0356L80.106 35.848ZM79.37 36.904L79.9555 37.7147L79.9632 37.7091L79.37 36.904ZM76.714 36.744L75.987 37.4306L75.9968 37.441L76.0069 37.4511L76.714 36.744ZM76.234 34.952L75.2623 34.7156L75.2575 34.7357L75.2534 34.7559L76.234 34.952ZM81.482 12.52L82.4558 12.7473L82.4571 12.7416L81.482 12.52ZM82.186 11.4L81.6005 10.5893L81.5894 10.5973L81.5786 10.6056L82.186 11.4ZM84.65 11.4L84.0194 12.1761L84.0457 12.1975L84.0733 12.217L84.65 11.4ZM85.418 12.456L86.3694 12.1478L86.3667 12.1398L85.418 12.456ZM90.954 29.544H91.954V29.3861L91.9053 29.2358L90.954 29.544ZM91.146 30.472L90.1716 30.6969L92.1204 30.6969L91.146 30.472ZM91.338 29.544L90.384 29.2442L90.338 29.3906V29.544H91.338ZM96.778 12.232L95.8341 11.9016L95.8288 11.9169L95.824 11.9322L96.778 12.232ZM100.266 11.176L99.721 12.0144L99.721 12.0144L100.266 11.176ZM101.034 12.232L100.053 12.4281L100.06 12.4587L100.068 12.4889L101.034 12.232ZM103.114 20.392L102.144 20.6345L102.145 20.6397L103.114 20.392ZM105.994 31.624L106.964 31.3815L106.962 31.375L105.994 31.624ZM106.858 35.08L107.846 34.9279L107.839 34.8823L107.828 34.8375L106.858 35.08ZM105.922 35.496C105.922 35.7608 105.832 36.0036 105.575 36.2609L106.989 37.6751C107.585 37.0791 107.922 36.3405 107.922 35.496H105.922ZM105.557 36.2793C105.336 36.5121 105.105 36.608 104.81 36.608V38.608C105.667 38.608 106.418 38.2773 107.007 37.6567L105.557 36.2793ZM104.81 36.608C104.602 36.608 104.379 36.5434 104.123 36.3549L102.937 37.9651C103.492 38.3739 104.122 38.608 104.81 38.608V36.608ZM104.115 36.3493C103.902 36.1953 103.831 36.0569 103.805 35.93L101.847 36.342C101.991 37.0258 102.39 37.5701 102.945 37.9707L104.115 36.3493ZM103.8 35.9097C103.309 33.7962 102.626 30.883 101.751 27.1706L99.8047 27.6294C100.679 31.341 101.362 34.2518 101.852 36.3623L103.8 35.9097ZM101.752 27.1719C100.877 23.4379 100.215 20.6502 99.7655 18.8108L97.8225 19.2852C98.2694 21.1151 98.9298 23.8954 99.8044 27.6281L101.752 27.1719ZM99.7804 18.8836L99.6524 18.1156L97.6796 18.4444L97.8076 19.2124L99.7804 18.8836ZM97.7173 17.9638C97.6403 18.1948 97.5802 18.4257 97.5481 18.6506L99.528 18.9334C99.5385 18.8596 99.5637 18.7492 99.6147 18.5962L97.7173 17.9638ZM97.538 18.792C97.538 18.8325 97.5361 18.841 97.5377 18.828C97.5386 18.8206 97.5417 18.7981 97.5499 18.7655C97.5574 18.7355 97.5746 18.6748 97.6116 18.6008L99.4004 19.4952C99.4872 19.3217 99.5123 19.156 99.5223 19.076C99.5346 18.9776 99.538 18.8795 99.538 18.792H97.538ZM97.5531 18.7447L92.3691 35.0327L94.2749 35.6393L99.4589 19.3513L97.5531 18.7447ZM92.3733 35.0198C92.285 35.2848 92.1445 35.4783 91.9466 35.6296L93.1615 37.2184C93.6889 36.815 94.0603 36.2832 94.2707 35.6522L92.3733 35.0198ZM91.954 35.624C91.7948 35.7434 91.6132 35.808 91.37 35.808V37.808C92.0228 37.808 92.6305 37.6166 93.154 37.224L91.954 35.624ZM91.37 35.808C91.1119 35.808 90.8699 35.7358 90.6227 35.5667L89.4933 37.2173C90.0568 37.6028 90.6894 37.808 91.37 37.808V35.808ZM90.6435 35.5813C90.4045 35.4087 90.2703 35.223 90.1963 35.0223L88.3197 35.7137C88.5444 36.3236 88.9435 36.8206 89.4725 37.2027L90.6435 35.5813ZM90.2059 35.0495L84.7339 18.7615L82.8381 19.3985L88.3101 35.6865L90.2059 35.0495ZM84.7712 18.9087L84.6432 18.1727L82.6728 18.5153L82.8008 19.2513L84.7712 18.9087ZM82.6945 18.0764C82.6386 18.2774 82.5931 18.4549 82.5608 18.6036C82.5338 18.7278 82.498 18.9089 82.498 19.08H84.498C84.498 19.1256 84.4933 19.1463 84.4967 19.1238C84.4992 19.1073 84.5047 19.0767 84.5152 19.0284C84.5362 18.9318 84.5707 18.7946 84.6215 18.6116L82.6945 18.0764ZM82.5193 18.8745C82.0706 21.0113 81.4834 23.8726 80.7579 27.4576L82.7181 27.8544C83.4433 24.2714 84.0294 21.4154 84.4767 19.2855L82.5193 18.8745ZM80.7581 27.4565C80.0325 31.0203 79.4876 33.7557 79.1238 35.6604L81.0882 36.0356C81.4498 34.143 81.9928 31.417 82.7179 27.8555L80.7581 27.4565ZM79.1275 35.642C79.103 35.7579 79.0291 35.913 78.7768 36.0989L79.9632 37.7091C80.5215 37.2977 80.9383 36.7488 81.0846 36.054L79.1275 35.642ZM78.7845 36.0933C78.5692 36.2488 78.347 36.32 78.09 36.32V38.32C78.7716 38.32 79.4028 38.1139 79.9555 37.7147L78.7845 36.0933ZM78.09 36.32C77.8273 36.32 77.6214 36.2372 77.4211 36.0369L76.0069 37.4511C76.5746 38.0188 77.2861 38.32 78.09 38.32V36.32ZM77.441 36.0574C77.2475 35.8525 77.17 35.6479 77.17 35.4H75.17C75.17 36.1761 75.4551 36.8675 75.987 37.4306L77.441 36.0574ZM77.17 35.4C77.17 35.4178 77.169 35.4242 77.1699 35.4145C77.1707 35.4061 77.1724 35.3903 77.1759 35.3654C77.1831 35.3151 77.1954 35.2438 77.2146 35.1481L75.2534 34.7559C75.2117 34.9647 75.17 35.2036 75.17 35.4H77.17ZM77.2057 35.1884C77.3991 34.393 79.1503 26.9079 82.4558 12.7473L80.5082 12.2927C77.2004 26.4628 75.4529 33.9323 75.2623 34.7156L77.2057 35.1884ZM82.4571 12.7416C82.515 12.4869 82.6272 12.3215 82.7934 12.1944L81.5786 10.6056C81.0195 11.0331 80.6623 11.6144 80.5069 12.2984L82.4571 12.7416ZM82.7715 12.2107C82.9868 12.0552 83.209 11.984 83.466 11.984V9.984C82.7844 9.984 82.1532 10.1901 81.6005 10.5893L82.7715 12.2107ZM83.466 11.984C83.689 11.984 83.8599 12.0465 84.0194 12.1761L85.2806 10.6239C84.7574 10.1988 84.139 9.984 83.466 9.984V11.984ZM84.0733 12.217C84.2503 12.3419 84.3828 12.5128 84.4693 12.7722L86.3667 12.1398C86.1545 11.5032 85.775 10.9701 85.2267 10.583L84.0733 12.217ZM84.4667 12.7642L90.0027 29.8522L91.9053 29.2358L86.3693 12.1478L84.4667 12.7642ZM89.954 29.544C89.954 29.659 89.9747 29.7737 89.9804 29.807C89.9912 29.8698 90.0057 29.9444 90.0227 30.0266C90.057 30.1924 90.107 30.417 90.1716 30.6969L92.1204 30.2471C92.057 29.9724 92.011 29.765 91.9813 29.6214C91.9663 29.5489 91.9568 29.4995 91.9516 29.469C91.949 29.4536 91.9485 29.4493 91.949 29.4529C91.9492 29.4549 91.9502 29.4627 91.9512 29.4747C91.9521 29.4848 91.954 29.51 91.954 29.544H89.954ZM92.1204 30.6969C92.185 30.417 92.235 30.1924 92.2693 30.0266C92.2863 29.9444 92.3008 29.8698 92.3116 29.807C92.3173 29.7737 92.338 29.659 92.338 29.544H90.338C90.338 29.51 90.34 29.4848 90.3408 29.4747C90.3418 29.4627 90.3428 29.4549 90.3431 29.4529C90.3435 29.4493 90.343 29.4536 90.3404 29.469C90.3352 29.4995 90.3257 29.5489 90.3107 29.6214C90.281 29.765 90.235 29.9724 90.1716 30.2471L92.1204 30.6969ZM92.292 29.8438L97.732 12.5318L95.824 11.9322L90.384 29.2442L92.292 29.8438ZM97.7219 12.5623C97.8003 12.3382 97.9368 12.1504 98.1635 11.9867L96.9925 10.3653C96.4512 10.7563 96.0544 11.2724 95.8341 11.9016L97.7219 12.5623ZM98.1635 11.9867C98.3788 11.8312 98.601 11.76 98.858 11.76V9.76C98.1764 9.76 97.5452 9.96613 96.9925 10.3653L98.1635 11.9867ZM98.858 11.76C99.1778 11.76 99.4576 11.8432 99.721 12.0144L100.811 10.3376C100.221 9.9541 99.5622 9.76 98.858 9.76V11.76ZM99.721 12.0144C99.9634 12.172 100.03 12.3103 100.053 12.4281L102.015 12.0359C101.867 11.3004 101.422 10.7347 100.811 10.3376L99.721 12.0144ZM100.068 12.4889C100.514 14.1665 101.205 16.8803 102.144 20.6345L104.084 20.1495C103.145 16.3943 102.45 13.6681 102 11.9751L100.068 12.4889ZM102.145 20.6397C103.105 24.3948 104.065 28.1393 105.026 31.873L106.962 31.375C106.003 27.6421 105.043 23.8985 104.083 20.1443L102.145 20.6397ZM105.024 31.8665L105.888 35.3225L107.828 34.8375L106.964 31.3815L105.024 31.8665ZM105.87 35.2321L105.934 35.6481L107.91 35.3439L107.846 34.9279L105.87 35.2321ZM132.78 34.6L131.855 34.9816L131.857 34.9846L132.78 34.6ZM132.364 36.648L131.638 35.9603L131.637 35.9614L132.364 36.648ZM129.9 36.904L129.345 37.7361L129.357 37.7442L129.37 37.752L129.9 36.904ZM129.196 36.04L128.263 36.4002L128.267 36.4105L128.271 36.4207L129.196 36.04ZM126.7 29.576L127.633 29.2158L127.386 28.576H126.7V29.576ZM116.94 29.576V28.576H116.25L116.005 29.2213L116.94 29.576ZM114.476 36.072L113.541 35.7173L113.539 35.7209L114.476 36.072ZM113.772 36.904L113.242 36.056L113.229 36.0638L113.217 36.0719L113.772 36.904ZM111.308 36.648L112.035 35.9614L112.035 35.9614L111.308 36.648ZM110.924 34.632L111.847 35.0166L111.848 35.0127L110.924 34.632ZM120.172 12.168L119.25 11.7799L119.247 11.7873L120.172 12.168ZM120.844 11.24L120.263 10.4263L120.248 10.4366L120.234 10.4474L120.844 11.24ZM122.796 11.24L123.35 10.4079L123.35 10.4079L122.796 11.24ZM123.532 12.2L122.603 12.5714L122.607 12.5816L123.532 12.2ZM121.548 17.544L122.482 17.9001L122.497 17.86L122.509 17.8187L121.548 17.544ZM118.316 26.024L117.381 25.6679L116.864 27.024H118.316V26.024ZM125.324 26.024V27.024H126.78L126.257 25.6648L125.324 26.024ZM122.06 17.544L121.098 17.8187L121.11 17.8616L121.126 17.9032L122.06 17.544ZM121.804 16.648L122.765 16.3733L121.804 13.0079L120.842 16.3733L121.804 16.648ZM131.857 34.9846C131.898 35.0829 131.921 35.153 131.933 35.1985C131.946 35.2474 131.94 35.246 131.94 35.208H133.94C133.94 34.8574 133.824 34.5068 133.703 34.2154L131.857 34.9846ZM131.94 35.208C131.94 35.5049 131.847 35.7393 131.638 35.9603L133.09 37.3357C133.648 36.746 133.94 36.0204 133.94 35.208H131.94ZM131.637 35.9614C131.473 36.1344 131.283 36.224 130.988 36.224V38.224C131.802 38.224 132.529 37.9296 133.091 37.3346L131.637 35.9614ZM130.988 36.224C130.8 36.224 130.62 36.175 130.43 36.056L129.37 37.752C129.862 38.0596 130.407 38.224 130.988 38.224V36.224ZM130.454 36.0719C130.303 35.9712 130.196 35.8419 130.12 35.6593L128.271 36.4207C128.495 36.9634 128.856 37.4101 129.345 37.7361L130.454 36.0719ZM130.129 35.6798L127.633 29.2158L125.767 29.9362L128.263 36.4002L130.129 35.6798ZM126.7 28.576H116.94V30.576H126.7V28.576ZM116.005 29.2213L113.541 35.7173L115.411 36.4267L117.875 29.9307L116.005 29.2213ZM113.539 35.7209C113.497 35.8349 113.417 35.9463 113.242 36.056L114.302 37.752C114.809 37.435 115.199 36.9918 115.412 36.4231L113.539 35.7209ZM113.217 36.0719C113.07 36.1697 112.903 36.224 112.684 36.224V38.224C113.275 38.224 113.833 38.065 114.326 37.7361L113.217 36.0719ZM112.684 36.224C112.389 36.224 112.198 36.1344 112.035 35.9614L110.581 37.3346C111.143 37.9296 111.869 38.224 112.684 38.224V36.224ZM112.035 35.9614C111.849 35.765 111.764 35.5528 111.764 35.272H109.764C109.764 36.0579 110.041 36.763 110.581 37.3346L112.035 35.9614ZM111.764 35.272C111.764 35.288 111.762 35.2754 111.774 35.2265C111.786 35.1789 111.808 35.1098 111.847 35.0166L110.001 34.2474C109.871 34.5585 109.764 34.9123 109.764 35.272H111.764ZM111.848 35.0127L121.096 12.5487L119.247 11.7873L109.999 34.2513L111.848 35.0127ZM121.093 12.5561C121.214 12.2699 121.344 12.1165 121.453 12.0326L120.234 10.4474C119.788 10.7901 119.471 11.2554 119.25 11.7799L121.093 12.5561ZM121.425 12.0537C121.58 11.9431 121.69 11.92 121.772 11.92V9.92C121.214 9.92 120.705 10.1102 120.263 10.4263L121.425 12.0537ZM121.772 11.92C121.925 11.92 122.075 11.9613 122.241 12.072L123.35 10.4079C122.877 10.0921 122.344 9.92 121.772 9.92V11.92ZM122.241 12.072C122.362 12.1528 122.493 12.2952 122.603 12.5714L124.46 11.8286C124.229 11.2514 123.869 10.7539 123.35 10.4079L122.241 12.072ZM122.607 12.5816L131.855 34.9816L133.704 34.2184L124.456 11.8184L122.607 12.5816ZM120.613 17.1879L117.381 25.6679L119.25 26.3801L122.482 17.9001L120.613 17.1879ZM118.316 27.024H125.324V25.024H118.316V27.024ZM126.257 25.6648L122.993 17.1848L121.126 17.9032L124.39 26.3832L126.257 25.6648ZM123.021 17.2693L122.765 16.3733L120.842 16.9227L121.098 17.8187L123.021 17.2693ZM120.842 16.3733L120.586 17.2693L122.509 17.8187L122.765 16.9227L120.842 16.3733ZM138.043 36.936L137.355 37.662L138.043 36.936ZM138.075 11.624L138.764 12.349L138.765 12.3481L138.075 11.624ZM141.307 11.848L140.518 12.4619L140.524 12.4703L140.531 12.4785L141.307 11.848ZM155.707 29.576L156.601 29.1288L156.552 29.0307L156.483 28.9455L155.707 29.576ZM155.963 30.088L155.069 30.5352L156.963 30.088H155.963ZM159.451 11.304L158.763 12.03L158.773 12.0387L158.782 12.0473L159.451 11.304ZM159.419 36.488L160.09 37.2295L160.099 37.221L160.109 37.2121L159.419 36.488ZM156.955 36.872L156.459 37.7402L156.483 37.754L156.508 37.7664L156.955 36.872ZM156.187 36.232L155.412 36.8637L155.419 36.8722L156.187 36.232ZM141.819 18.6L140.914 19.0258L140.966 19.1367L141.044 19.2317L141.819 18.6ZM141.563 18.056L142.468 17.6302L140.563 18.056H141.563ZM140.923 36.936L140.254 36.1927L140.245 36.2013L140.235 36.21L140.923 36.936ZM139.483 36.512C139.186 36.512 138.952 36.4194 138.731 36.21L137.355 37.662C137.945 38.2206 138.671 38.512 139.483 38.512V36.512ZM138.731 36.21C138.505 35.9959 138.435 35.803 138.435 35.592H136.435C136.435 36.405 136.771 37.1081 137.355 37.662L138.731 36.21ZM138.435 35.592V13.064H136.435V35.592H138.435ZM138.435 13.064C138.435 12.8016 138.522 12.5784 138.764 12.349L137.386 10.899C136.774 11.4802 136.435 12.2171 136.435 13.064H138.435ZM138.765 12.3481C139.034 12.0915 139.312 11.984 139.643 11.984V9.984C138.779 9.984 138.012 10.3031 137.385 10.8999L138.765 12.3481ZM139.643 11.984C139.961 11.984 140.237 12.1007 140.518 12.4619L142.096 11.2341C141.481 10.4433 140.648 9.984 139.643 9.984V11.984ZM140.531 12.4785L154.931 30.2065L156.483 28.9455L142.083 11.2175L140.531 12.4785ZM154.813 30.0232L155.069 30.5352L156.857 29.6408L156.601 29.1288L154.813 30.0232ZM156.963 30.088V12.648H154.963V30.088H156.963ZM156.963 12.648C156.963 12.437 157.033 12.2441 157.259 12.03L155.883 10.578C155.299 11.1319 154.963 11.835 154.963 12.648H156.963ZM157.259 12.03C157.48 11.8206 157.714 11.728 158.011 11.728V9.728C157.199 9.728 156.473 10.0194 155.883 10.578L157.259 12.03ZM158.011 11.728C158.308 11.728 158.542 11.8206 158.763 12.03L160.139 10.578C159.549 10.0194 158.823 9.728 158.011 9.728V11.728ZM158.782 12.0473C159.026 12.2672 159.091 12.4555 159.091 12.648H161.091C161.091 11.8165 160.729 11.1088 160.12 10.5607L158.782 12.0473ZM159.091 12.648V35.016H161.091V12.648H159.091ZM159.091 35.016C159.091 35.264 159.004 35.5019 158.729 35.7639L160.109 37.2121C160.73 36.6207 161.091 35.8773 161.091 35.016H159.091ZM158.748 35.7465C158.482 35.9875 158.197 36.096 157.851 36.096V38.096C158.699 38.096 159.46 37.7991 160.09 37.2295L158.748 35.7465ZM157.851 36.096C157.725 36.096 157.579 36.0658 157.402 35.9776L156.508 37.7664C156.929 37.9769 157.38 38.096 157.851 38.096V36.096ZM157.451 36.0038C157.253 35.8903 157.09 35.7532 156.955 35.5918L155.419 36.8722C155.711 37.2228 156.06 37.5123 156.459 37.7402L157.451 36.0038ZM156.962 35.6003L142.594 17.9683L141.044 19.2317L155.412 36.8637L156.962 35.6003ZM142.724 18.1742L142.468 17.6302L140.658 18.4818L140.914 19.0258L142.724 18.1742ZM140.563 18.056V35.592H142.563V18.056H140.563ZM140.563 35.592C140.563 35.7845 140.498 35.9728 140.254 36.1927L141.592 37.6793C142.201 37.1312 142.563 36.4235 142.563 35.592H140.563ZM140.235 36.21C140.014 36.4194 139.78 36.512 139.483 36.512V38.512C140.295 38.512 141.021 38.2206 141.611 37.662L140.235 36.21Z" fill="black" mask="url(#path-1-outside-1_9_5)"/>
<path d="M0.85 43.14C0.79 43.14 0.736667 43.12 0.69 43.08C0.65 43.0333 0.63 42.98 0.63 42.92C0.63 42.86 0.65 42.81 0.69 42.77C0.736667 42.7233 0.79 42.7 0.85 42.7H5.47C5.53 42.7 5.58 42.7233 5.62 42.77C5.66667 42.81 5.69 42.86 5.69 42.92C5.69 42.98 5.66667 43.0333 5.62 43.08C5.58 43.12 5.53 43.14 5.47 43.14H3.5C3.44 43.14 3.41 43.17 3.41 43.23V49.75C3.41 49.8233 3.38333 49.8833 3.33 49.93C3.28333 49.9767 3.22667 50 3.16 50C3.09333 50 3.03333 49.9767 2.98 49.93C2.93333 49.8833 2.91 49.8233 2.91 49.75V43.23C2.91 43.17 2.88 43.14 2.82 43.14H0.85ZM18.7684 50C18.615 50 18.4817 49.9433 18.3684 49.83C18.255 49.7167 18.1984 49.5833 18.1984 49.43V43.27C18.1984 43.1167 18.255 42.9833 18.3684 42.87C18.4817 42.7567 18.615 42.7 18.7684 42.7H22.1184C22.1784 42.7 22.2284 42.7233 22.2684 42.77C22.3084 42.81 22.3284 42.86 22.3284 42.92C22.3284 42.98 22.3084 43.03 22.2684 43.07C22.2284 43.11 22.1784 43.13 22.1184 43.13H18.7884C18.7284 43.13 18.6984 43.16 18.6984 43.22V45.74C18.6984 45.8 18.7284 45.83 18.7884 45.83H21.9184C21.9784 45.83 22.0284 45.85 22.0684 45.89C22.1084 45.93 22.1284 45.98 22.1284 46.04C22.1284 46.1 22.1084 46.15 22.0684 46.19C22.0284 46.23 21.9784 46.25 21.9184 46.25H18.7884C18.7284 46.25 18.6984 46.2767 18.6984 46.33V49.48C18.6984 49.54 18.7284 49.57 18.7884 49.57H22.1184C22.1784 49.57 22.2284 49.59 22.2684 49.63C22.3084 49.67 22.3284 49.72 22.3284 49.78C22.3284 49.84 22.3084 49.8933 22.2684 49.94C22.2284 49.98 22.1784 50 22.1184 50H18.7684ZM37.4617 50.1C36.5551 50.1 35.8251 49.7733 35.2717 49.12C34.7184 48.46 34.4417 47.5367 34.4417 46.35C34.4417 45.17 34.7051 44.25 35.2317 43.59C35.7651 42.93 36.4884 42.6 37.4017 42.6C37.9551 42.6 38.4651 42.6733 38.9317 42.82C39.0851 42.8667 39.1617 42.97 39.1617 43.13C39.1617 43.1833 39.1351 43.23 39.0817 43.27C39.0351 43.3033 38.9884 43.31 38.9417 43.29C38.4417 43.1167 37.9384 43.03 37.4317 43.03C36.6584 43.03 36.0517 43.3233 35.6117 43.91C35.1717 44.4967 34.9517 45.31 34.9517 46.35C34.9517 47.3833 35.1784 48.1967 35.6317 48.79C36.0917 49.3767 36.7117 49.67 37.4917 49.67C38.0184 49.67 38.5184 49.5833 38.9917 49.41C39.0384 49.39 39.0851 49.4 39.1317 49.44C39.1851 49.4733 39.2117 49.5167 39.2117 49.57C39.2117 49.73 39.1351 49.8333 38.9817 49.88C38.5151 50.0267 38.0084 50.1 37.4617 50.1ZM52.3471 49.93C52.3004 49.9767 52.2404 50 52.1671 50C52.0938 50 52.0338 49.9767 51.9871 49.93C51.9404 49.8833 51.9171 49.8233 51.9171 49.75V42.95C51.9171 42.8767 51.9404 42.8167 51.9871 42.77C52.0338 42.7233 52.0938 42.7 52.1671 42.7C52.2404 42.7 52.3004 42.7233 52.3471 42.77C52.3938 42.8167 52.4171 42.8767 52.4171 42.95V45.74C52.4171 45.8 52.4471 45.83 52.5071 45.83H56.1671C56.2271 45.83 56.2571 45.8 56.2571 45.74V42.95C56.2571 42.8767 56.2804 42.8167 56.3271 42.77C56.3738 42.7233 56.4338 42.7 56.5071 42.7C56.5804 42.7 56.6404 42.7233 56.6871 42.77C56.7338 42.8167 56.7571 42.8767 56.7571 42.95V49.75C56.7571 49.8233 56.7338 49.8833 56.6871 49.93C56.6404 49.9767 56.5804 50 56.5071 50C56.4338 50 56.3738 49.9767 56.3271 49.93C56.2804 49.8833 56.2571 49.8233 56.2571 49.75V46.33C56.2571 46.2767 56.2271 46.25 56.1671 46.25H52.5071C52.4471 46.25 52.4171 46.2767 52.4171 46.33V49.75C52.4171 49.8233 52.3938 49.8833 52.3471 49.93ZM69.9487 49.93C69.902 49.9767 69.842 50 69.7687 50C69.6953 50 69.6353 49.9767 69.5887 49.93C69.542 49.8833 69.5187 49.8233 69.5187 49.75V42.99C69.5187 42.91 69.5453 42.8433 69.5987 42.79C69.6587 42.73 69.7287 42.7 69.8087 42.7C70.002 42.7 70.1487 42.7833 70.2487 42.95L74.0387 49.23C74.0387 49.2367 74.042 49.24 74.0487 49.24C74.0553 49.24 74.0587 49.2367 74.0587 49.23V42.95C74.0587 42.8767 74.082 42.8167 74.1287 42.77C74.1753 42.7233 74.2353 42.7 74.3087 42.7C74.382 42.7 74.442 42.7233 74.4887 42.77C74.5353 42.8167 74.5587 42.8767 74.5587 42.95V49.71C74.5587 49.79 74.5287 49.86 74.4687 49.92C74.4153 49.9733 74.3487 50 74.2687 50C74.0753 50 73.9287 49.9167 73.8287 49.75L70.0387 43.47C70.0387 43.4633 70.0353 43.46 70.0287 43.46C70.022 43.46 70.0187 43.4633 70.0187 43.47V49.75C70.0187 49.8233 69.9953 49.8833 69.9487 49.93ZM91.8555 43.88C91.4089 43.3133 90.7722 43.03 89.9455 43.03C89.1189 43.03 88.4822 43.3133 88.0355 43.88C87.5889 44.4467 87.3655 45.27 87.3655 46.35C87.3655 47.43 87.5889 48.2533 88.0355 48.82C88.4822 49.3867 89.1189 49.67 89.9455 49.67C90.7722 49.67 91.4089 49.3867 91.8555 48.82C92.3022 48.2533 92.5255 47.43 92.5255 46.35C92.5255 45.27 92.3022 44.4467 91.8555 43.88ZM92.2055 49.12C91.6655 49.7733 90.9122 50.1 89.9455 50.1C88.9789 50.1 88.2222 49.7733 87.6755 49.12C87.1355 48.4667 86.8655 47.5433 86.8655 46.35C86.8655 45.1567 87.1355 44.2333 87.6755 43.58C88.2222 42.9267 88.9789 42.6 89.9455 42.6C90.9122 42.6 91.6655 42.9267 92.2055 43.58C92.7522 44.2333 93.0255 45.1567 93.0255 46.35C93.0255 47.5433 92.7522 48.4667 92.2055 49.12ZM105.897 50C105.744 50 105.61 49.9433 105.497 49.83C105.39 49.7167 105.337 49.5833 105.337 49.43V42.96C105.337 42.8933 105.364 42.8333 105.417 42.78C105.47 42.7267 105.53 42.7 105.597 42.7C105.664 42.7 105.72 42.7267 105.767 42.78C105.82 42.8267 105.847 42.8867 105.847 42.96V49.47C105.847 49.53 105.877 49.56 105.937 49.56H109.347C109.407 49.56 109.457 49.5833 109.497 49.63C109.544 49.67 109.567 49.72 109.567 49.78C109.567 49.84 109.544 49.8933 109.497 49.94C109.457 49.98 109.407 50 109.347 50H105.897ZM126.121 43.88C125.675 43.3133 125.038 43.03 124.211 43.03C123.385 43.03 122.748 43.3133 122.301 43.88C121.855 44.4467 121.631 45.27 121.631 46.35C121.631 47.43 121.855 48.2533 122.301 48.82C122.748 49.3867 123.385 49.67 124.211 49.67C125.038 49.67 125.675 49.3867 126.121 48.82C126.568 48.2533 126.791 47.43 126.791 46.35C126.791 45.27 126.568 44.4467 126.121 43.88ZM126.471 49.12C125.931 49.7733 125.178 50.1 124.211 50.1C123.245 50.1 122.488 49.7733 121.941 49.12C121.401 48.4667 121.131 47.5433 121.131 46.35C121.131 45.1567 121.401 44.2333 121.941 43.58C122.488 42.9267 123.245 42.6 124.211 42.6C125.178 42.6 125.931 42.9267 126.471 43.58C127.018 44.2333 127.291 45.1567 127.291 46.35C127.291 47.5433 127.018 48.4667 126.471 49.12ZM142.55 50.1C141.577 50.1 140.784 49.7633 140.17 49.09C139.557 48.4167 139.25 47.5033 139.25 46.35C139.25 45.2033 139.56 44.2933 140.18 43.62C140.807 42.94 141.64 42.6 142.68 42.6C143.227 42.6 143.747 42.6667 144.24 42.8C144.387 42.8467 144.46 42.9433 144.46 43.09C144.46 43.1433 144.437 43.1867 144.39 43.22C144.35 43.2533 144.304 43.2633 144.25 43.25C143.764 43.1033 143.25 43.03 142.71 43.03C141.797 43.03 141.074 43.3267 140.54 43.92C140.014 44.5133 139.75 45.3233 139.75 46.35C139.75 47.3633 140.007 48.17 140.52 48.77C141.04 49.37 141.727 49.67 142.58 49.67C143.18 49.67 143.727 49.58 144.22 49.4C144.274 49.38 144.3 49.34 144.3 49.28V46.33C144.3 46.2767 144.27 46.25 144.21 46.25H141.92C141.86 46.25 141.81 46.23 141.77 46.19C141.73 46.15 141.71 46.1 141.71 46.04C141.71 45.98 141.73 45.93 141.77 45.89C141.81 45.85 141.86 45.83 141.92 45.83H144.21C144.364 45.83 144.497 45.8867 144.61 46C144.724 46.1067 144.78 46.2367 144.78 46.39V49.1C144.78 49.2733 144.73 49.4333 144.63 49.58C144.537 49.72 144.41 49.8133 144.25 49.86C143.75 50.02 143.184 50.1 142.55 50.1ZM159.105 46.75L156.715 42.95C156.675 42.8967 156.671 42.8433 156.705 42.79C156.738 42.73 156.788 42.7 156.855 42.7C157.048 42.7 157.198 42.7833 157.305 42.95L159.395 46.37C159.395 46.3767 159.401 46.38 159.415 46.38C159.421 46.38 159.425 46.3767 159.425 46.37L161.525 42.95C161.625 42.7833 161.771 42.7 161.965 42.7C162.025 42.7 162.071 42.7267 162.105 42.78C162.138 42.8333 162.138 42.8867 162.105 42.94L159.705 46.75C159.678 46.7967 159.665 46.85 159.665 46.91V49.74C159.665 49.8067 159.638 49.8667 159.585 49.92C159.531 49.9733 159.468 50 159.395 50C159.328 50 159.268 49.9733 159.215 49.92C159.168 49.8667 159.145 49.8067 159.145 49.74V46.91C159.145 46.85 159.131 46.7967 159.105 46.75Z" fill="black"/>
</svg>
