<?xml version="1.0" standalone="no"?>
<!DOCTYPE svg PUBLIC "-//W3C//DTD SVG 20010904//EN"
 "http://www.w3.org/TR/2001/REC-SVG-20010904/DTD/svg10.dtd">
<svg version="1.0" xmlns="http://www.w3.org/2000/svg"
 width="939.000000pt" height="264.000000pt" viewBox="0 0 939.000000 264.000000"
 preserveAspectRatio="xMidYMid meet">
<metadata>
Created by potrace 1.10, written by Peter Selinger 2001-2011
</metadata>
<g transform="translate(0.000000,264.000000) scale(0.100000,-0.100000)"
fill="#000000" stroke="none">
<path d="M2405 2223 c-33 -8 -74 -21 -90 -28 -51 -21 -97 -28 -105 -16 -8 14
-1419 16 -1433 2 -11 -11 -11 -361 0 -372 5 -5 128 -10 273 -11 229 -3 265 -5
268 -18 2 -14 -89 -149 -274 -405 -107 -148 -155 -216 -216 -302 -32 -46 -86
-122 -120 -170 -99 -141 -118 -170 -118 -182 0 -16 1481 -16 1498 1 7 7 12 27
12 45 0 41 12 42 88 4 161 -82 303 -111 547 -111 216 0 334 23 467 90 87 44
101 53 135 84 17 15 36 25 42 22 6 -4 11 -33 11 -65 0 -36 5 -63 13 -69 20
-17 1119 -21 1138 -5 8 7 21 47 28 90 7 43 18 112 26 153 30 170 45 269 51
333 4 45 10 67 17 64 17 -5 43 -65 67 -152 5 -16 18 -55 30 -85 12 -30 25 -68
30 -85 5 -16 18 -55 30 -85 12 -30 25 -69 30 -86 4 -18 11 -37 15 -44 4 -7 11
-26 16 -44 4 -17 46 -141 92 -276 81 -238 104 -283 120 -233 3 10 29 83 57
163 28 80 55 159 60 175 4 17 18 55 30 85 51 131 210 602 210 622 0 20 27 54
36 45 4 -4 15 -62 25 -130 26 -186 78 -477 89 -498 6 -10 22 -22 37 -25 47
-12 551 2 568 16 8 7 18 28 21 48 11 58 40 133 55 143 16 10 448 12 473 3 9
-4 28 -46 46 -104 l30 -98 188 -7 c188 -8 442 -2 462 10 6 4 10 125 10 361 0
289 2 354 13 354 12 0 75 -70 232 -258 133 -160 286 -338 336 -395 l61 -67
227 2 226 3 0 735 0 735 -229 3 c-160 2 -233 -1 -242 -9 -11 -9 -14 -76 -14
-355 0 -188 -4 -345 -9 -348 -12 -8 -87 77 -302 339 -135 165 -299 357 -314
367 -5 4 -112 8 -236 8 -176 0 -229 -3 -238 -13 -6 -9 -12 -85 -13 -207 -2
-124 -7 -195 -13 -197 -6 -2 -44 77 -85 174 -41 98 -81 192 -90 208 l-17 30
-253 5 c-235 5 -255 4 -277 -13 -13 -10 -23 -25 -23 -34 0 -8 -6 -27 -14 -41
-8 -15 -27 -54 -41 -87 -48 -106 -67 -150 -75 -166 -4 -8 -34 -76 -65 -150
-80 -188 -94 -198 -114 -79 -5 36 -24 139 -41 230 -17 91 -37 200 -45 242 -7
42 -16 82 -20 88 -7 11 -441 15 -469 4 -9 -3 -16 -13 -16 -21 0 -8 -6 -27 -13
-41 -20 -39 -38 -80 -107 -247 -34 -82 -66 -159 -71 -170 -4 -11 -19 -51 -32
-89 -13 -39 -28 -71 -34 -73 -6 -2 -21 27 -33 64 -22 67 -72 198 -90 238 -5
11 -30 72 -55 135 -25 63 -52 129 -60 145 -7 17 -16 38 -19 47 -5 16 -28 18
-232 20 -172 2 -231 0 -240 -10 -7 -6 -17 -38 -23 -70 -20 -104 -42 -216 -56
-287 -8 -38 -21 -108 -30 -155 -19 -103 -43 -229 -55 -290 -5 -25 -17 -86 -26
-137 -9 -50 -22 -100 -29 -109 -11 -15 -31 -19 -119 -20 -58 -2 -107 -2 -108
-1 -2 1 -5 243 -8 537 l-5 535 -234 3 c-164 2 -238 -1 -247 -9 -9 -7 -14 -32
-14 -70 0 -32 -3 -60 -8 -63 -4 -2 -32 11 -62 31 -107 68 -224 116 -361 148
-91 21 -468 20 -554 -2z m434 -429 c96 -24 206 -107 247 -185 21 -41 43 -149
37 -185 -25 -161 -70 -226 -203 -292 -52 -26 -62 -27 -205 -27 l-150 0 -70 35
c-164 82 -235 218 -201 385 35 171 153 259 386 288 35 4 95 -3 159 -19z m3705
-215 c24 -95 38 -140 76 -239 39 -99 50 -90 -100 -90 -154 0 -143 -18 -90 145
18 55 39 127 47 160 18 80 34 127 39 122 3 -2 15 -46 28 -98z m-4781 -192 c4
-69 15 -129 32 -181 14 -43 23 -82 20 -87 -4 -5 -78 -9 -166 -9 -132 0 -159 2
-159 15 0 8 29 56 66 107 36 51 91 130 122 175 31 46 62 83 68 83 7 0 13 -39
17 -103z"/>
</g>
</svg>
